{"title":"Mission Impossible 4 - Ghost Protocol 2011 BD-Rip 1080p Dual Aud","uid":7244862,"size":2310256065,"categoryP":"video","categoryS":"hd___movies","magnet":"?xt=urn:btih:6cc89b08b7cb7fcbe5bb2bef78518c9e17ff3bca&amp;dn=Mission+Impossible+4+-+Ghost+Protocol+2011+BD-Rip+1080p+Dual+Aud&amp;tr=udp%3A%2F%2Ftracker.openbittorrent.com%3A80&amp;tr=udp%3A%2F%2Fopen.demonii.com%3A1337&amp;tr=udp%3A%2F%2Ftracker.coppersurfer.tk%3A6969&amp;tr=udp%3A%2F%2Fexodus.desync.com%3A6969","seeders":1,"leechers":3,"uploader":"Abhinav4u","files":4,"time":1336248659,"description":"Info:-\nFormat : Matroska\nFile size : 2.14 GiB\nDuration : 2h 7mn\nOverall bit rate : 2 402 Kbps\n\nID : 3\nFormat : AVC\nFormat/Info : Advanced Video Codec\nFormat profile : &lt;a class=&quot;__cf_email__&quot; href=&quot;/cdn-cgi/l/email-protection&quot; data-cfemail=&quot;1159787679515d253f21&quot;&gt;[email&amp;#160;protected]&lt;/a&gt;&lt;script cf-hash='f9e31' type=&quot;text/javascript&quot;&gt;\n/* &lt;![CDATA[ */!function(){try{var t=&quot;currentScript&quot;in document?document.currentScript:function(){for(var t=document.getElementsByTagName(&quot;script&quot;),e=t.length;e--;)if(t[e].getAttribute(&quot;cf-hash&quot;))return t[e]}();if(t&amp;&amp;t.previousSibling){var e,r,n,i,c=t.previousSibling,a=c.getAttribute(&quot;data-cfemail&quot;);if(a){for(e=&quot;&quot;,r=parseInt(a.substr(0,2),16),n=2;a.length-n;n+=2)i=parseInt(a.substr(n,2),16)^r,e+=String.fromCharCode(i);e=document.createTextNode(e),c.parentNode.replaceChild(e,c)}}}catch(u){}}();/* ]]&gt; */&lt;/script&gt;\nCodec ID : V_MPEG4/ISO/AVC\nDuration : 2h 7mn\nBit rate : 1 445 Kbps\nWidth : 1 920 pixels\nHeight : 800 pixels\nDisplay aspect ratio : 2.40:1\nChroma subsampling : 4:2:0\nBit depth : 8 bits\nScan type : Progressive\nStream size : 1.30 GiB (61%)\nTitle : Ripper::~Abhinav4u~\n\n\nAudio #1\nID : 1\nFormat : AC-3\nDuration : 2h 7mn\nBit rate : 448 Kbps\nChannel(s) : 6 channels\nChannel positions : Front: L C R, Side: L R, LFE\nSampling rate : 48.0 KHz\nBit depth : 16 bits\nStream size : 409 MiB (19%)\nTitle : 5.1 Ac3 Untouched~Abhinav4u~\nLanguage : Hindi\n\nAudio #2\nID : 2\nFormat : AC-3\nCodec ID : A_AC3\nDuration : 2h 7mn\nBit rate : 448 Kbps\nChannel(s) : 6 channels\nChannel positions : Front: L C R, Side: L R, LFE\nSampling rate : 48.0 KHz\nStream size : 409 MiB (19%)\nTitle : 5.1 Ac3 Untouched~Abhinav4u~\nLanguage : Tamil\n\nEnjoy The Movie..","torrent":{"xt":"urn:btih:6cc89b08b7cb7fcbe5bb2bef78518c9e17ff3bca","amp;dn":"Mission+Impossible+4+-+Ghost+Protocol+2011+BD-Rip+1080p+Dual+Aud","amp;tr":["udp%3A%2F%2Ftracker.openbittorrent.com%3A80","udp%3A%2F%2Fopen.demonii.com%3A1337","udp%3A%2F%2Ftracker.coppersurfer.tk%3A6969","udp%3A%2F%2Fexodus.desync.com%3A6969"],"infoHash":"6cc89b08b7cb7fcbe5bb2bef78518c9e17ff3bca","infoHashBuffer":{"type":"Buffer","data":[108,200,155,8,183,203,127,203,229,187,43,239,120,81,140,158,23,255,59,202]},"announce":[],"urlList":[]}}